<!--?xml version="1.0" encoding="utf-8"?-->
<!-- Generator: Adobe Illustrator 19.1.1, SVG Export Plug-In . SVG Version: 6.00 Build 0)  -->
<svg version="1.1" id="_x31_0" xmlns="http://www.w3.org/2000/svg" xmlns:xlink="http://www.w3.org/1999/xlink" x="0px" y="0px" viewBox="0 0 512 512" style="width: 256px; height: 256px; opacity: 1;" xml:space="preserve">
<style type="text/css">
	.st0{fill:#374149;}
</style>
<g>
	<path class="st0" d="M165.683,106.525c-0.183,0.094-0.273,0.184-0.363,0.367c-6.602,4.77-8.16,14.031-3.39,20.813
		c4.766,6.878,14.301,8.531,21.18,3.672c3.203-2.29,5.406-5.594,6.046-9.262c0.918-3.851,0.184-8.25-2.289-11.922
		C182.008,103.314,172.562,101.67,165.683,106.525z M179.254,115.424c-0.09,0.18-0.367,0.367-0.64,0.547
		c-2.294,1.652-5.59,1.008-7.242-1.371c-1.008-1.379-1.191-3.027-0.641-4.586c0.274-1.101,0.918-1.926,1.926-2.66
		c2.379-1.652,5.59-1.102,7.242,1.282C181.457,110.748,181.09,113.681,179.254,115.424z" style="fill: rgb(75, 75, 75);"></path>
	<path class="st0" d="M221.434,173.737c1.102-2.844,1.195-4.035,1.285-4.125L213,166.127c0,0-0.641,1.649-1.656,3.664
		c-0.91,2.114-2.657,5.141-4.95,8.531c-4.586,6.969-12.102,15.219-21.359,21.637c-2.386,1.562-4.586,3.121-6.973,4.406
		c-2.382,1.371-4.766,2.66-7.242,3.664c-4.77,2.11-9.258,3.668-13.386,4.586c-4.035,1.008-7.43,1.649-9.809,1.832
		c-2.386,0.184-3.762,0.278-3.762,0.278l-0.274,10.27c0,0,6.598,1.008,16.23-0.645c4.856-0.824,10.45-2.199,16.047-4.586
		c2.84-1.102,5.68-2.473,8.434-4.031c2.934-1.469,5.774-3.301,8.34-4.953c10.546-7.516,19.258-17.606,23.934-26.223
		C219.05,180.338,220.516,176.49,221.434,173.737z" style="fill: rgb(75, 75, 75);"></path>
	<path class="st0" d="M337.332,306.689c0-0.274-0.183-0.55-0.367-0.734l-5.41-8.438l-5.133-6.14l-0.918-1.192
		c-2.11-2.476-4.309-4.402-6.422-6.695c-2.11-2.199-4.489-4.214-6.692-6.234c-4.402-4.125-8.988-7.699-13.66-11.461
		c-4.68-3.394-9.355-7.062-14.211-10.176c-2.293-1.558-4.586-3.117-6.878-4.496c-3.102-2.008-6.258-3.766-9.39-5.679
		c-1.254-0.766-2.508-1.528-3.782-2.286c-3.195-1.914-6.367-3.977-9.57-5.789c-5.039-2.84-10.176-5.5-15.313-8.156l-7.882-3.762
		l-4.129-2.019c-2.051-0.855-5.129-1.77-6.145-2.187c-0.019-0.024-0.106-0.051-0.113-0.074l-0.004,0.027
		c-0.035-0.016-0.126-0.043-0.153-0.058l-3.578,19.258c0.706,0.351,1.058,0.535,1.164,0.711c0.007,0.015,0.019,0.027,0.027,0.042
		c0.07,0.176,0,0.352,0,0.438h0.094l3.394,2.016l7.055,4.218c4.679,2.844,9.359,5.778,14.031,8.805
		c9.351,5.957,18.43,12.102,27.23,18.61c8.894,6.422,17.426,13.113,25.214,20.355c1.59,1.508,3.278,3.027,4.782,4.598
		c0.199,0.242,0.418,0.465,0.602,0.726c-1.614,0.09-3.309,0.18-4.922,0.18c-4.77,0.09-9.441,0-14.121-0.183
		c-4.68-0.274-9.168-0.641-13.754-1.192c-4.402-0.644-8.801-1.469-13.114-2.476c-4.218-1.188-8.434-2.57-12.285-4.309
		c-3.946-1.653-7.699-3.668-11.278-6.145c-1.836-1.102-3.394-2.477-5.137-3.762c-1.645-1.371-3.207-2.93-4.855-4.398l-14.582,13.207
		c3.578,4.305,7.426,8.34,12.012,11.824c4.312,3.574,9.168,6.691,14.214,9.262c5.043,2.75,10.266,4.586,15.586,6.422
		c5.226,1.554,10.542,2.835,15.859,3.847c5.23,0.824,10.55,1.558,15.863,2.016c5.23,0.367,10.453,0.457,15.68,0.55
		c7.523,0,15.039-0.274,22.465-0.641c2.75-0.183,5.504-0.277,8.254-0.55h0.645c2.011-0.278,3.938-0.734,5.774-1.926
		c0.55-0.462,1.191-0.829,1.648-1.375c2.66-2.477,3.946-6.051,3.762-9.629c-0.09,0-0.09-0.184-0.09-0.184
		C338.617,309.807,338.25,308.158,337.332,306.689z" style="fill: rgb(75, 75, 75);"></path>
	<path class="st0" d="M379.875,354.826c2.566,0.094,5.41,0.461,8.16,1.102c11.278,2.199,20.906,8.985,33.742,15.863
		c12.652,6.875,26.957,10.086,38.328,9.992c11.461,0.094,21.183-1.465,29.156-3.941c7.977-2.294,13.664-5.598,17.332-7.887
		c3.664-2.293,5.406-3.668,5.406-3.668l-5.32-9.168c0,0-1.829,0.828-5.313,2.11c-3.578,1.187-8.711,2.566-15.317,3.301
		c-6.598,0.73-15.034,0.367-24.202-1.012c-9.352-1.558-18.066-4.949-27.325-11.277c-4.679-3.114-9.718-7.426-16.14-11.645
		c-6.325-4.218-14.118-8.344-22.645-10.91c-2.293-0.734-4.676-1.374-7.242-1.832c0.824-5.5,1.282-9.718,1.469-13.48
		c0.363-4.582,0.363-9.074,0.363-13.848c-0.09-4.586-0.363-9.442-0.641-13.934c-0.183-1.465-0.273-2.84-0.367-4.214
		c-0.273-2.754-0.55-5.414-1.007-8.715l-0.278-1.836c-0.551-3.847-1.098-7.699-1.926-11.278
		c-3.211-17.328-7.973-34.382-14.122-50.613c-3.117-8.89-6.965-17.602-9.992-24.203c-1.832-3.942-3.762-7.793-5.778-11.649
		l-1.102-2.293l22.192-29.062l0.644-0.824c1.555-2.016,2.477-4.309,3.02-7.062c1.195-8.434-4.672-16.317-13.02-17.606
		L226.016,93.322c-24.383-14.664-53.727-27.691-89.582-39.976l-18.977-6.418c-3.301-1.191-6.973-0.824-9.992,0.918
		c-3.027,1.742-5.23,4.679-5.965,8.16l-2.317,11.289l-0.359,1.629L87.016,64.44c-3.672-1.371-7.61-1.004-10.914,1.102
		c-3.203,2.015-5.313,5.41-5.68,9.262l-2.019,23.473c-4.586,53.09-5.961,102.234,24.664,164.675
		c-0.274,1.742-0.457,3.485-0.641,5.23c-1.008,10.817-1.558,21.543-1.558,31.997c-0.094,5.414,0.183,10.82,0.457,16.598l0.367,3.39
		c0.367,4.309,0.825,8.711,1.653,13.11l0.183,1.382c0.367,2.469,0.734,4.95,1.375,7.242l0.55,2.106
		c0.458,2.289,1.008,4.402,1.742,6.602l0.793,2.386l0.102,0.379c-0.82,0.453-1.637,0.906-2.453,1.27
		c-0.094,0.094-0.184,0.183-0.278,0.183c-5.042,2.293-10.546,3.762-15.402,4.676c-2.66,0.546-6.148,0.641-9.078,1.008
		c-1.832,0.094-5.137,0.367-7.52,0.273c-5.133,0.094-9.812-0.546-14.214-1.461c-8.707-1.926-16.043-5.594-22.555-9.172
		c-6.511-3.578-12.102-6.324-16.23-7.976c-4.031-1.653-5.957-2.199-5.957-2.199L0,349.6c0,0,0.457,0.274,1.285,0.824
		c0.918,0.551,2.383,1.286,3.758,2.387c3.027,1.832,7.336,5.41,13.207,9.992c5.863,4.586,13.93,11,25.214,15.039
		c5.496,2.015,11.641,3.758,18.152,4.586c3.391,0.543,6.051,0.734,10.266,0.91c3.21,0,5.965,0.281,9.633,0
		c7.882-0.454,15.496-1.645,23.289-4.305c2.844-1.008,5.594-2.11,8.25-3.394c1.102-0.551,2.294-1.102,3.395-1.649
		c3.484-1.746,6.878-3.668,9.992-5.594c0.918-0.55,1.742-1.102,2.566-1.558c3.945-2.477,7.609-4.496,11.187-6.145
		c4.676-2.106,9.258-3.664,14.122-4.582c0.457-0.09,0.918-0.184,1.374-0.184c2.11-0.461,4.313-0.641,6.606-0.824
		c3.114-0.094,7.058-0.278,9.809-0.094l6.05,0.457l4.402,0.734c6.047,1.195,12.012,3.39,17.692,6.785
		c0.734,0.458,1.468,0.825,2.293,1.286c0,0.09,0.094,0.09,0.183,0.09c1.012,0.641,2.02,1.286,3.122,2.019
		c4.492,2.934,9.441,6.414,15.402,9.993c8.433,5.137,18.886,9.258,29.16,11.183c5.039,0.734,10.175,1.562,15.125,1.653l3.762,0.094
		l0.457,0.09l1.192-0.09h0.828l1.558-0.094l6.414-0.367c11.285-1.008,21.183-3.668,30.718-8.161
		c9.262-4.398,16.778-9.898,23.016-14.027c0.09,0,0.09-0.09,0.183-0.09c0.734-0.461,1.375-0.918,2.016-1.285
		c5.32-3.578,10.086-5.958,15.222-7.7c2.934-0.828,5.867-1.652,9.074-2.019c2.754-0.734,7.156-0.641,8.988-1.008l5.778,0.09h2.843
		l2.016,0.183H379.875z M361.187,299.963c-6.949-21.742-15.171-42.203-23.031-59.656l15.039,3.297
		c1.836,6.606,3.297,13.39,4.582,20.172c0.824,3.855,1.285,7.703,1.836,11.648c0.55,3.207,0.824,8.066,1.191,12.008
		c0.183,3.946,0.367,7.523,0.457,11.371c0,0.309,0,0.617,0,0.926C361.242,299.807,361.222,299.885,361.187,299.963z
		 M342.738,325.119c-0.367,0.547-0.824,1.008-1.278,1.465c-5.871,1.469-11.558,3.762-16.781,6.418
		c-0.734,0.457-1.469,0.824-2.11,1.191c-0.734,0.367-1.469,0.832-2.203,1.195c-1.742,0.914-3.394,1.832-4.953,2.84
		c-7.516,4.77-13.473,8.898-19.344,11.461c-5.687,2.57-12.379,4.039-17.973,4.586l-6.324,0.277h-2.57l-2.383-0.094
		c-3.578,0-6.874-0.457-10.175-0.824c-6.508-1.191-12.106-3.301-18.246-6.782c-6.145-3.394-13.117-8.714-21.918-13.484
		c-8.891-4.676-18.977-7.977-29.066-9.352l-7.794-0.734l-6.144-0.183c-2.379-0.09-4.672,0-6.782,0.094l-3.305-4.125
		c-4.855-6.145-9.718-12.653-14.484-19.531l-1.008-1.469c-11.648-16.684-20.816-32.09-28.058-46.762
		c-1.832-3.668-3.574-7.246-5.137-10.817c-22.187-50.523-21.27-91.602-17.234-139.644l0.172-1.055l0.015-0.046l15.489,5.863
		c3.851,1.469,8.074-0.825,8.898-4.856l2.473-12.062l0.586-2.683c3.114,1.465,7.41,3.473,12.801,6.035
		c3.789,1.89,8.222,4.137,12.926,6.687c0.527,0.305,1.008,0.543,1.543,0.859c-8.782,9.902-10.058,24.922-2.09,36.282
		c9.262,13.203,27.691,16.504,40.984,7.148c4.543-3.175,7.906-7.441,9.934-12.156c0.019-0.043,0.054-0.078,0.074-0.121
		c8.617,6.507,17.965,14.301,24.375,21.996c7.43,10.274,6.148,29.801,13.851,41.906c4.855,6.969,15.492,22.374,27.32,39.976
		c7.43,4.496,14.856,9.172,22.192,13.938c4.214,2.844,8.16,5.871,12.102,8.707l2.839,2.114l2.57,2.199
		c3.852,3.027,7.797,6.144,11.461,9.629l1.375,1.191c0.824,0.734,1.558,1.375,2.293,2.11c1.102,1.007,2.294,2.109,3.395,3.301
		c0.64,0.734,1.281,1.374,2.015,2.109c0.461,0.462,0.914,0.918,1.371,1.375c1.199,1.102,2.293,2.199,3.305,3.574l6.234,7.43
		l0.461,0.734l5.406,8.34C348.703,308.893,347.969,318.517,342.738,325.119z M194.386,125.693
		c-1.469,4.121-4.129,7.883-7.886,10.543c-9.539,6.781-22.832,4.398-29.434-5.137c-6.05-8.618-4.77-20.352,2.754-27.418
		c0.727-0.726,1.555-1.374,2.477-2.011c2.656-1.926,5.774-3.118,8.89-3.578c7.699-1.191,15.774,2.02,20.539,8.711
		c0.274,0.457,0.551,0.918,0.824,1.465C195.762,113.681,196.313,120.096,194.386,125.693z M337.035,196.99
		c0.058,0.25,0.18,0.465,0.211,0.754l-22.566-4.938c-3.387-6.051-5.497-9.626-5.958-10.27l-0.367-0.73l-4.675-6.695
		c-1.469-2.11-2.934-4.309-4.493-6.418c-1.191-1.832-2.566-3.758-3.941-5.59l29.25,6.414c0.09,1.375,0.551,2.934,1.286,4.313
		l0.273,0.274c1.653,3.21,3.578,6.875,5.317,10.359c1.742,3.668,3.39,7.34,5.043,10.91
		C336.664,195.936,336.844,196.459,337.035,196.99z M350.633,234.513l-16.695-3.652c-0.551-1.102-1.008-2.293-1.649-3.301
		c-0.094-0.183-0.277-0.461-0.367-0.824c-4.398-9.352-8.621-17.61-12.105-24.39l21.363,4.679c1.469,3.57,2.75,7.149,4.035,10.726
		c1.808,5.004,3.414,9.962,4.926,15.016C350.293,233.346,350.492,233.936,350.633,234.513z M344.977,138.413l-18.098,22.855
		c-0.09,0-0.184,0.183-0.184,0.274l-38.969-8.438c-7.703-9.902-16.687-19.801-27.875-29.703l57.555,10.098L344.977,138.413z
		 M123.117,335.295c-0.71-2.094-0.992-4.519-1.347-6.691c-1.746-9.258-2.386-18.985-2.844-28.793v-0.458
		c3.02,4.77,6.23,9.539,9.719,14.394c1.832,2.57,3.574,5.137,5.41,7.61c-1.836,2.703-3.824,5.398-5.863,8.082
		C126.633,331.361,125.008,333.291,123.117,335.295z" style="fill: rgb(75, 75, 75);"></path>
	<path class="st0" d="M254.016,447.717c-1.063,0.035-2.157,0.168-3.165,0.122c-4.129-0.008-7.843-0.391-11.258-1.246
		c-6.722-1.722-12.938-5.378-17.875-7.351c-2.359-1.008-4.683-1.727-5.926-2.043c-1.305-0.324-1.996-0.5-1.996-0.5l-2.77,6.012
		c0,0,0.582,0.418,1.68,1.203c1.141,0.793,2.246,1.882,4.11,3.41c1.793,1.535,3.882,3.555,6.664,5.852
		c2.746,2.305,6.246,5.007,10.726,7.179c4.434,2.25,9.73,3.934,15.254,4.657c1.39,0.262,2.762,0.32,4.176,0.476l1.058,0.098
		c0.352,0.012-0.039,0.043,0.926,0.039l0.473,0.016l1.898,0.062c1.363,0.015,2.359,0.148,4.051-0.02
		c1.64-0.16,3.297-0.316,4.965-0.476c6.277-0.922,13.074-3.074,18.594-6.391c5.535-3.226,9.898-6.398,13.898-8.367
		c3.906-2.144,7.82-3.374,12.344-3.906c2.14-0.219,4.766-0.477,6.672-0.524l4,0.012l2.878,0.242c4.07,0.542,7.926,1.461,11.672,3.16
		c3.734,1.699,7.68,3.977,11.832,6.008c4.114,2.07,8.41,3.672,12.285,4.398c3.84,0.878,7.246,1.004,9.946,0.942
		c2.722,0.094,4.789-0.395,6.195-0.532c1.394-0.191,2.141-0.297,2.141-0.297v-6.617c0,0-0.66-0.16-1.902-0.465
		c-1.226-0.309-3.046-0.695-5.195-1.43c-2.184-0.629-4.691-1.641-7.34-2.981c-2.687-1.297-5.34-3.23-8.422-5.566
		c-3.062-2.359-6.512-5.515-11.25-8.492c-4.691-3.027-10.511-5.715-16.855-6.957c-1.668-0.27-3.344-0.547-5.031-0.825l-4.082-0.371
		c-3.515-0.258-6.406-0.195-9.77,0.11c-6.507,0.527-13.613,2.481-19.656,5.61c-6.023,3.203-10.656,6.898-14.66,9.316
		c-4.004,2.367-7.558,4.114-11.676,5.09l-2.808,0.566c-0.879,0.222-2.458,0.262-3.63,0.445l-1.886,0.219l-0.469,0.058
		c0.649-0.012-0.05,0.008-0.012,0.012L254.016,447.717z" style="fill: rgb(75, 75, 75);"></path>
</g>
</svg>
